<svg id="visual" viewBox="0 0 2000 150" width="2000" height="150" xmlns="http://www.w3.org/2000/svg" xmlns:xlink="http://www.w3.org/1999/xlink" version="1.1"><g fill="#e3c4ee"><circle r="62" cx="402" cy="109"></circle><circle r="28" cx="1558" cy="30"></circle><circle r="46" cx="673" cy="24"></circle><circle r="46" cx="260" cy="6"></circle><circle r="40" cx="850" cy="20"></circle><circle r="58" cx="1268" cy="40"></circle><circle r="56" cx="1083" cy="124"></circle><circle r="56" cx="1913" cy="22"></circle><circle r="55" cx="1802" cy="112"></circle><circle r="34" cx="534" cy="146"></circle><circle r="53" cx="1418" cy="5"></circle><circle r="38" cx="1146" cy="10"></circle><circle r="55" cx="1003" cy="6"></circle><circle r="42" cx="220" cy="126"></circle><circle r="50" cx="65" cy="64"></circle><circle r="39" cx="1382" cy="144"></circle><circle r="40" cx="1670" cy="144"></circle><circle r="36" cx="887" cy="141"></circle><circle r="42" cx="1966" cy="138"></circle><circle r="39" cx="525" cy="19"></circle><circle r="29" cx="736" cy="137"></circle><circle r="37" cx="1684" cy="17"></circle></g></svg>