<svg id="visual" viewBox="0 0 3000 1800" width="3000" height="1800" xmlns="http://www.w3.org/2000/svg" xmlns:xlink="http://www.w3.org/1999/xlink" version="1.1"><path d="M0 1145L71.5 1188.2C143 1231.3 286 1317.7 428.8 1286C571.7 1254.3 714.3 1104.7 857.2 1095C1000 1085.3 1143 1215.7 1285.8 1259C1428.7 1302.3 1571.3 1258.7 1714.2 1247.3C1857 1236 2000 1257 2142.8 1256.2C2285.7 1255.3 2428.3 1232.7 2571.2 1264.7C2714 1296.7 2857 1383.3 2928.5 1426.7L3000 1470L3000 0L2928.5 0C2857 0 2714 0 2571.2 0C2428.3 0 2285.7 0 2142.8 0C2000 0 1857 0 1714.2 0C1571.3 0 1428.7 0 1285.8 0C1143 0 1000 0 857.2 0C714.3 0 571.7 0 428.8 0C286 0 143 0 71.5 0L0 0Z" fill="#97dfe1"></path><path d="M0 862L71.5 839C143 816 286 770 428.8 831.5C571.7 893 714.3 1062 857.2 1097C1000 1132 1143 1033 1285.8 976.5C1428.7 920 1571.3 906 1714.2 875.3C1857 844.7 2000 797.3 2142.8 786.3C2285.7 775.3 2428.3 800.7 2571.2 801C2714 801.3 2857 776.7 2928.5 764.3L3000 752L3000 0L2928.5 0C2857 0 2714 0 2571.2 0C2428.3 0 2285.7 0 2142.8 0C2000 0 1857 0 1714.2 0C1571.3 0 1428.7 0 1285.8 0C1143 0 1000 0 857.2 0C714.3 0 571.7 0 428.8 0C286 0 143 0 71.5 0L0 0Z" fill="#85d6d8"></path><path d="M0 746L71.5 780.3C143 814.7 286 883.3 428.8 905.5C571.7 927.7 714.3 903.3 857.2 840.3C1000 777.3 1143 675.7 1285.8 625.7C1428.7 575.7 1571.3 577.3 1714.2 629.2C1857 681 2000 783 2142.8 838.8C2285.7 894.7 2428.3 904.3 2571.2 871.3C2714 838.3 2857 762.7 2928.5 724.8L3000 687L3000 0L2928.5 0C2857 0 2714 0 2571.2 0C2428.3 0 2285.7 0 2142.8 0C2000 0 1857 0 1714.2 0C1571.3 0 1428.7 0 1285.8 0C1143 0 1000 0 857.2 0C714.3 0 571.7 0 428.8 0C286 0 143 0 71.5 0L0 0Z" fill="#73cdcf"></path><path d="M0 391L71.5 401C143 411 286 431 428.8 444.3C571.7 457.7 714.3 464.3 857.2 458.5C1000 452.7 1143 434.3 1285.8 441C1428.7 447.7 1571.3 479.3 1714.2 497.3C1857 515.3 2000 519.7 2142.8 494.7C2285.7 469.7 2428.3 415.3 2571.2 395.8C2714 376.3 2857 391.7 2928.5 399.3L3000 407L3000 0L2928.5 0C2857 0 2714 0 2571.2 0C2428.3 0 2285.7 0 2142.8 0C2000 0 1857 0 1714.2 0C1571.3 0 1428.7 0 1285.8 0C1143 0 1000 0 857.2 0C714.3 0 571.7 0 428.8 0C286 0 143 0 71.5 0L0 0Z" fill="#5fc4c6"></path><path d="M0 155L71.5 201.5C143 248 286 341 428.8 360.7C571.7 380.3 714.3 326.7 857.2 303.7C1000 280.7 1143 288.3 1285.8 274C1428.7 259.7 1571.3 223.3 1714.2 232.8C1857 242.3 2000 297.7 2142.8 308.5C2285.7 319.3 2428.3 285.7 2571.2 283.8C2714 282 2857 312 2928.5 327L3000 342L3000 0L2928.5 0C2857 0 2714 0 2571.2 0C2428.3 0 2285.7 0 2142.8 0C2000 0 1857 0 1714.2 0C1571.3 0 1428.7 0 1285.8 0C1143 0 1000 0 857.2 0C714.3 0 571.7 0 428.8 0C286 0 143 0 71.5 0L0 0Z" fill="#49bbbd"></path></svg>